<?xml version="1.0" standalone="no"?>
<!DOCTYPE svg PUBLIC "-//W3C//DTD SVG 20010904//EN"
 "http://www.w3.org/TR/2001/REC-SVG-20010904/DTD/svg10.dtd">
<svg version="1.0" xmlns="http://www.w3.org/2000/svg"
 width="99.000000pt" height="99.000000pt" viewBox="0 0 99.000000 99.000000"
 preserveAspectRatio="xMidYMid meet">
<metadata>
Created by potrace 1.14, written by Peter Selinger 2001-2017
</metadata>
<g transform="translate(0.000000,99.000000) scale(0.100000,-0.100000)"
fill="#000000" stroke="none">
<path d="M80 500 l1 -252 162 4 c142 3 166 6 197 24 76 44 84 149 16 206 -12
9 -28 18 -36 18 -11 0 -10 5 6 18 54 46 65 133 22 179 -39 42 -74 50 -226 52
l-142 2 0 -251z m292 192 c77 -31 55 -160 -29 -163 -91 -4 -203 -4 -204 1 -3
12 -5 165 -3 171 5 10 208 2 236 -9z m23 -226 c52 -22 68 -67 44 -120 -17 -37
-62 -50 -179 -51 -58 -1 -110 0 -115 2 -8 3 -13 165 -6 181 0 1 51 2 111 2 73
0 122 -5 145 -14z"/>
<path d="M675 731 c-55 -25 -76 -52 -82 -105 -9 -80 33 -117 177 -151 115 -28
156 -80 110 -138 -38 -47 -151 -53 -235 -12 -37 18 -51 21 -57 12 -12 -19 -4
-31 42 -56 59 -33 176 -39 236 -12 62 28 87 66 81 124 -7 75 -25 87 -195 137
-87 25 -115 48 -108 91 6 42 32 67 75 76 49 10 98 6 150 -13 36 -14 45 -14 52
-3 14 23 5 33 -47 51 -65 23 -149 22 -199 -1z"/>
</g>
</svg>
